PathFileType	4	(X/Y/Z)	./resultDataOpenSim/trcMotMarkerGrf/sub09/qtm-15-07.trc
DataRate	CameraRate	NumFrames	NumMarkers	Units	OrigDataRate	OrigDataStartFrame	OrigNumFrames
250.000000	250.000000	10	24	m	250.000000	118	469
Frame#	Time	L.Toe.Tip			R.Toe.Tip			L.Ankle.Lat			R.Ankle.Lat			L.Ankle.Med			R.Ankle.Med			L.Heel			R.Heel			L.Knee.Lat			R.Knee.Lat			L.Knee.Med			R.Knee.Med			L.Thigh.Upper			R.Thigh.Upper			L.ASIS			R.ASIS			V.Sacral			L.Acromium			R.Acromium			C7			L.Elbow			R.Elbow			L.Wrist.Lat			R.Wrist.Lat
		X1	Y1	Z1	X2	Y2	Z2	X3	Y3	Z3	X4	Y4	Z4	X5	Y5	Z5	X6	Y6	Z6	X7	Y7	Z7	X8	Y8	Z8	X9	Y9	Z9	X10	Y10	Z10	X11	Y11	Z11	X12	Y12	Z12	X13	Y13	Z13	X14	Y14	Z14	X15	Y15	Z15	X16	Y16	Z16	X17	Y17	Z17	X18	Y18	Z18	X19	Y19	Z19	X20	Y20	Z20	X21	Y21	Z21	X22	Y22	Z22	X23	Y23	Z23	X24	Y24	Z24

118	0.468	-0.17930981	0.089100385	-0.01983216	-0.6346236	0.038555625	0.083923661	-0.3320861	0.088119856	-0.05129655	-0.78333084	0.058232817	0.11102307	-0.31093553	0.11251464	0.043421561	-0.76875139	0.093589058	0.020059013	-0.38712038	0.035074146	0.0017783925	-0.85000043	0.03570018	0.059475696	-0.38985405	0.5032684	-0.089583972	-0.64560958	0.49543158	0.17863689	-0.39003809	0.49975665	0.03637752	-0.66366711	0.48837498	0.049636381	-0.5626648	0.88835689	-0.13313998	-0.61859093	0.90058699	0.23858926	-0.49453386	0.97419378	-0.065401052	-0.50762496	0.97915601	0.17318015	-0.66972692	1.0310412	0.037591292	-0.50174224	1.4268027	-0.11489063	-0.51781627	1.4360056	0.21509601	-0.57892227	1.4841472	0.050197782	-0.661243	1.0985268	-0.16061916	-0.6270191	1.0760728	0.30298226	-0.58311071	0.85382567	-0.21175546	-0.39350097	0.92490596	0.25989282
119	0.472	-0.161006	0.093165598	-0.018200806	-0.63458746	0.038560318	0.084014423	-0.31386209	0.088180582	-0.050321171	-0.78288321	0.05777048	0.1109841	-0.29345547	0.11350257	0.04437909	-0.76847604	0.093642062	0.019935138	-0.36750354	0.033906102	0.0027870071	-0.84998653	0.035873573	0.059264731	-0.38294534	0.50137968	-0.089724648	-0.64309923	0.49519717	0.17907516	-0.38360465	0.49771919	0.036283812	-0.66124772	0.48793676	0.049927257	-0.55566761	0.88646806	-0.13303189	-0.61332078	0.8997118	0.23850074	-0.48755865	0.97252478	-0.06523719	-0.5011866	0.97790344	0.173346	-0.66256934	1.0299788	0.037186855	-0.49535773	1.4254949	-0.11493302	-0.51173502	1.4346136	0.21513336	-0.57266907	1.4827342	0.050166862	-0.65578119	1.0977853	-0.16094329	-0.62012025	1.0742615	0.30326071	-0.57916599	0.85281589	-0.21258082	-0.38524321	0.92515829	0.25946444
120	0.476	-0.14313362	0.097367502	-0.016630445	-0.63456626	0.038562284	0.084054706	-0.29601375	0.088466647	-0.049396353	-0.78257963	0.057470144	0.11090158	-0.27629421	0.11468688	0.045265278	-0.76819059	0.093698066	0.019803663	-0.34818657	0.033001713	0.0037361353	-0.84995872	0.036069741	0.059016429	-0.37587934	0.49943033	-0.089734302	-0.64142961	0.49459952	0.17918013	-0.37717039	0.49554434	0.036277403	-0.65867445	0.48748857	0.05032267	-0.54863429	0.88448318	-0.13288524	-0.60803513	0.89879744	0.23838923	-0.48059236	0.97078228	-0.065050851	-0.49476302	0.97659397	0.17353567	-0.65391319	1.0283568	0.035607685	-0.48898069	1.4241269	-0.11497876	-0.50566625	1.4331339	0.215169	-0.56641607	1.4812639	0.050129948	-0.65039093	1.0969702	-0.16125103	-0.61329898	1.0724012	0.3035709	-0.57516304	0.85174656	-0.21342065	-0.37703676	0.92531032	0.25903148
121	0.48	-0.12572947	0.10164857	-0.015170175	-0.63454756	0.038544288	0.08410432	-0.27851714	0.08894839	-0.048526782	-0.78247902	0.057417	0.11077823	-0.25951914	0.11600549	0.046069557	-0.76789824	0.093751154	0.019652917	-0.32919703	0.032335522	0.004532912	-0.84991209	0.036287675	0.058720333	-0.3687228	0.49744405	-0.08961713	-0.64043214	0.4936921	0.17901288	-0.37063992	0.4932844	0.03640199	-0.6558945	0.48702939	0.050743835	-0.54155516	0.88240624	-0.13271426	-0.60272455	0.89784024	0.23826475	-0.47363992	0.96897381	-0.064853334	-0.48834328	0.97522583	0.17374594	-0.64443323	1.0265695	0.033860165	-0.48258701	1.4226776	-0.11501221	-0.49961649	1.4315744	0.21520791	-0.56017731	1.4797562	0.050093412	-0.64497464	1.0960829	-0.16157423	-0.60650058	1.070484	0.30388244	-0.57109232	0.8506187	-0.21426827	-0.36888961	0.92534863	0.25859968
122	0.484	-0.10881661	0.10595198	-0.013830991	-0.63452552	0.038505144	0.084194835	-0.2613483	0.089616064	-0.047714743	-0.7824873	0.057518744	0.11063749	-0.24317533	0.11739646	0.046797244	-0.76760638	0.093790482	0.019457659	-0.31060672	0.031881845	0.0051718722	-0.849849	0.036527406	0.058372429	-0.36158184	0.49545834	-0.089411047	-0.63943478	0.49273087	0.17879825	-0.36396635	0.49099611	0.036666748	-0.65285769	0.48656347	0.051084581	-0.53444534	0.88024279	-0.13253397	-0.59738563	0.89684319	0.23813937	-0.46669961	0.96710413	-0.064654567	-0.48190853	0.97379479	0.17396731	-0.6359304	1.0251595	0.033659906	-0.47617522	1.421142	-0.11504286	-0.49358504	1.4299507	0.21525979	-0.55395617	1.478218	0.050063468	-0.63947908	1.0951242	-0.16193137	-0.59964727	1.0684873	0.30414952	-0.56695462	0.84943625	-0.21512725	-0.36080007	0.92527078	0.25817925
123	0.488	-0.092400845	0.11022211	-0.01258021	-0.63450141	0.038452899	0.084319349	-0.24452767	0.090470628	-0.046986482	-0.78251187	0.057688707	0.11050021	-0.22725454	0.11881809	0.047461219	-0.7673162	0.093813035	0.019206733	-0.29249733	0.031611929	0.0056924637	-0.84977853	0.036794469	0.057981576	-0.35447986	0.4935024	-0.089141334	-0.63792143	0.4919087	0.17870758	-0.35714756	0.48873154	0.037068936	-0.64957459	0.48608799	0.051297923	-0.52732491	0.87800212	-0.13235778	-0.59199268	0.89580156	0.23799758	-0.45976634	0.96517879	-0.064461023	-0.47544521	0.97229746	0.17418601	-0.62939886	1.0241248	0.035161894	-0.46975893	1.4195281	-0.11508258	-0.4875441	1.4282712	0.21532479	-0.5477313	1.4766321	0.050034708	-0.63391615	1.0940997	-0.16231384	-0.59271352	1.0664004	0.30435665	-0.56275172	0.84819716	-0.21599888	-0.35275971	0.92508642	0.25778106
124	0.492	-0.076484038	0.11440357	-0.011360779	-0.63447724	0.038397209	0.0844622	-0.22812068	0.091506994	-0.046374795	-0.78251721	0.057901965	0.11037222	-0.21173349	0.12023446	0.048040635	-0.76700663	0.093839365	0.018930584	-0.2749025	0.031487707	0.0060623562	-0.84970674	0.037103514	0.057562926	-0.34732202	0.49159387	-0.088816369	-0.63573016	0.49126934	0.17881838	-0.35022396	0.48653133	0.037595938	-0.64619033	0.48557603	0.051415216	-0.52021215	0.87569488	-0.13219554	-0.58650445	0.89469534	0.23781018	-0.45283438	0.96320205	-0.064277302	-0.46894817	0.97073394	0.17439101	-0.6242269	1.0229263	0.036464073	-0.46334065	1.4178464	-0.11512735	-0.48147201	1.4265386	0.21539224	-0.54147138	1.4749849	0.049993751	-0.62833526	1.0930216	-0.16268766	-0.58573352	1.064235	0.30452086	-0.55848151	0.84689151	-0.21687688	-0.34476514	0.92480813	0.25741111
125	0.496	-0.061073069	0.1184372	-0.010118174	-0.63445472	0.038345228	0.08461105	-0.21218698	0.09269307	-0.045875159	-0.78250836	0.058166662	0.11024058	-0.19663622	0.12160043	0.048505019	-0.76664525	0.093903369	0.018683562	-0.25782015	0.031454821	0.0062156839	-0.84962677	0.037472974	0.057126552	-0.3400168	0.48974104	-0.088449924	-0.63290681	0.49076652	0.17916204	-0.3432687	0.48441842	0.038213587	-0.64287151	0.48499566	0.051494914	-0.51312387	0.87332921	-0.13204879	-0.58089318	0.89349499	0.2375714	-0.44589992	0.96117491	-0.064105405	-0.46241813	0.96910706	0.17458083	-0.61955942	1.0211705	0.03581924	-0.4569085	1.4161077	-0.11516795	-0.47538398	1.4247549	0.21545479	-0.53516806	1.4732811	0.0499327	-0.6227803	1.0918993	-0.16301778	-0.57874219	1.0620093	0.30465519	-0.55414225	0.84551914	-0.21775935	-0.33682009	0.92443907	0.2570644
126	0.5	-0.046184966	0.12225271	-0.008825299	-0.63443485	0.038298207	0.084756508	-0.19674956	0.093944081	-0.045430447	-0.78250262	0.058481568	0.11007932	-0.18203811	0.12287631	0.048904886	-0.76622143	0.094026438	0.018496367	-0.24127253	0.031459995	0.0061626954	-0.84952452	0.037911103	0.056676227	-0.33261965	0.48793391	-0.088054345	-0.62961652	0.49031928	0.17970218	-0.33636585	0.48238947	0.038860426	-0.63960037	0.48434809	0.051573926	-0.50605795	0.87091309	-0.13191417	-0.5751674	0.89218899	0.23731197	-0.43896621	0.95910454	-0.063943975	-0.45586828	0.96742075	0.17476168	-0.61505235	1.0189636	0.033344849	-0.45045404	1.4143215	-0.11520332	-0.46930614	1.4229213	0.21551506	-0.52884242	1.4715213	0.049851107	-0.61723532	1.090723	-0.16332253	-0.57172879	1.0597287	0.30474533	-0.54972674	0.84409572	-0.21865002	-0.32893113	0.92396994	0.25672849
127	0.504	-0.031848348	0.12577125	-0.0075016567	-0.63441645	0.038252658	0.084892164	-0.18182631	0.095139163	-0.044971093	-0.7825086	0.058819419	0.10986951	-0.1680007	0.12405201	0.049356188	-0.76575349	0.094214681	0.018362969	-0.2253419	0.031484825	0.0060147471	-0.84939591	0.038408835	0.056215661	-0.32524087	0.48615698	-0.08763498	-0.62610121	0.48983828	0.18031183	-0.32957341	0.48041213	0.039456843	-0.63623387	0.48366151	0.051658227	-0.49899475	0.86845922	-0.13178939	-0.56936938	0.89080866	0.23707692	-0.43204589	0.95700643	-0.063792919	-0.44931877	0.96568254	0.17493941	-0.6102507	1.0166122	0.030520623	-0.44398023	1.4124931	-0.11523857	-0.46324401	1.4210373	0.21557558	-0.52252232	1.4696932	0.049752969	-0.61159854	1.0894644	-0.16370919	-0.56464192	1.0573816	0.30475739	-0.54521207	0.84262864	-0.21953708	-0.32110626	0.92338835	0.25639454
